<?xml version="1.0" encoding="UTF-8" standalone="no"?>
<svg
   xmlns:dc="http://purl.org/dc/elements/1.1/"
   xmlns:cc="http://creativecommons.org/ns#"
   xmlns:rdf="http://www.w3.org/1999/02/22-rdf-syntax-ns#"
   xmlns:svg="http://www.w3.org/2000/svg"
   xmlns="http://www.w3.org/2000/svg"
   xmlns:sodipodi="http://sodipodi.sourceforge.net/DTD/sodipodi-0.dtd"
   xmlns:inkscape="http://www.inkscape.org/namespaces/inkscape"
   inkscape:version="1.0alpha2 (863a58d, 2019-08-17)"
   sodipodi:docname="delete_icon.svg"
   id="svg12"
   version="1.1"
   width="48"
   viewBox="0 -960 960 960"
   height="48">
  <metadata
     id="metadata18">
    <rdf:RDF>
      <cc:Work
         rdf:about="">
        <dc:format>image/svg+xml</dc:format>
        <dc:type
           rdf:resource="http://purl.org/dc/dcmitype/StillImage" />
      </cc:Work>
    </rdf:RDF>
  </metadata>
  <defs
     id="defs16" />
  <sodipodi:namedview
     inkscape:current-layer="svg12"
     inkscape:window-maximized="0"
     inkscape:window-y="25"
     inkscape:window-x="0"
     inkscape:cy="44.077832"
     inkscape:cx="32.506432"
     inkscape:zoom="6.8905894"
     showgrid="false"
     id="namedview14"
     inkscape:window-height="907"
     inkscape:window-width="1796"
     inkscape:pageshadow="2"
     inkscape:pageopacity="0"
     guidetolerance="10"
     gridtolerance="10"
     objecttolerance="10"
     borderopacity="1"
     inkscape:document-rotation="0"
     bordercolor="#666666"
     pagecolor="#ffffff" />
  <path
     style="fill:#ee6352;fill-opacity:1"
     id="path10"
     d="M253-99q-38.212 0-65.106-26.6Q161-152.2 161-190v-552h-58v-91h228v-47h297v47h228v91h-58v552q0 37.175-27.206 64.088Q743.588-99 706-99H253Zm453-643H253v552h453v-552ZM357-268h74v-398h-74v398Zm173 0h75v-398h-75v398ZM253-742v552-552Z" />
  <path
     transform="matrix(20,0,0,20,0,-960)"
     inkscape:connector-curvature="0"
     id="path843"
     d="M 11.197116,42.547794 C 10.659181,42.324401 9.7734554,41.575142 9.2288372,40.882772 8.265105,39.657585 8.2386228,39.235438 8.2386228,25.097952 V 10.571987 H 6.8492493 c -1.3379152,0 -1.3893735,-0.07719 -1.3893735,-2.0840602 V 6.4038665 H 11.01737 16.574864 V 5.2460553 4.088244 h 7.409992 7.409992 v 1.1578113 1.1578112 h 5.557494 5.557494 v 2.0840603 c 0,2.0068722 -0.05146,2.0840602 -1.389373,2.0840602 h -1.389374 v 14.581115 14.581116 l -1.350711,1.512461 -1.350712,1.512461 -12.427242,0.09741 C 17.767441,42.91013 11.735052,42.77118 11.197116,42.547793 Z M 35.562969,24.697284 V 10.571987 H 23.984856 12.406743 v 14.125297 14.125298 h 11.578113 11.578113 z"
     style="opacity:0.05;fill:#ffffff;stroke-width:0.463125" />
  <path
     transform="matrix(20,0,0,20,0,-960)"
     inkscape:connector-curvature="0"
     id="path845"
     d="M 9.8468718,41.124962 8.5030802,39.722346 8.3148484,25.147166 8.1266166,10.571987 h -1.052259 c -1.1653101,0 -1.6144818,-0.7836247 -1.6144818,-2.8166248 V 6.4038665 H 11.01737 16.574864 V 5.2460553 4.088244 h 7.409992 7.409992 v 1.1578113 1.1578112 h 5.557494 5.557494 v 1.3514957 c 0,2.0549976 -0.451706,2.8166248 -1.670485,2.8166248 h -1.108262 l -0.01357,14.472641 -0.01358,14.472641 -1.36927,1.505154 -1.369269,1.505155 H 24.078031 11.190663 Z M 35.562969,24.697284 V 10.571987 H 23.984856 12.406743 v 14.125297 14.125298 h 11.578113 11.578113 z"
     style="opacity:0.05;fill:#ee6352;stroke-width:0.463125;fill-opacity:0" />
  <path
     transform="matrix(20,0,0,20,0,-960)"
     inkscape:connector-curvature="0"
     id="path847"
     d="m 26.763603,24.465722 v -9.725614 h 1.620936 1.620936 v 9.725614 9.725615 h -1.620936 -1.620936 z"
     style="opacity:1;fill:#ee6352;fill-opacity:0;stroke-width:0.463125" />
  <path
     transform="matrix(20,0,0,20,0,-960)"
     inkscape:connector-curvature="0"
     id="path849"
     d="M 9.8468718,41.124962 8.5030802,39.722346 8.3148484,25.147166 8.1266166,10.571987 h -1.052259 c -1.1653101,0 -1.6144818,-0.7836247 -1.6144818,-2.8166248 V 6.4038665 H 11.01737 16.574864 V 5.2460553 4.088244 h 7.409992 7.409992 v 1.1578113 1.1578112 h 5.557494 5.557494 v 1.3514957 c 0,2.0549976 -0.451706,2.8166248 -1.670485,2.8166248 h -1.108262 l -0.01357,14.472641 -0.01358,14.472641 -1.36927,1.505154 -1.369269,1.505155 H 24.078031 11.190663 Z M 35.562969,24.697284 V 10.571987 H 23.984856 12.406743 v 14.125297 14.125298 h 11.578113 11.578113 z"
     style="opacity:1;fill:#ee6352;fill-opacity:0;stroke-width:0.463125" />
  <path
     transform="matrix(20,0,0,20,0,-960)"
     inkscape:connector-curvature="0"
     id="path851"
     d="M 9.8468718,41.124962 8.5030802,39.722346 8.3148484,25.147166 8.1266166,10.571987 h -1.052259 c -1.1653101,0 -1.6144818,-0.7836247 -1.6144818,-2.8166248 V 6.4038665 H 11.01737 16.574864 V 5.2460553 4.088244 h 7.409992 7.409992 v 1.1578113 1.1578112 h 5.557494 5.557494 v 1.3514957 c 0,2.0549976 -0.451706,2.8166248 -1.670485,2.8166248 h -1.108262 l -0.01357,14.472641 -0.01358,14.472641 -1.36927,1.505154 -1.369269,1.505155 H 24.078031 11.190663 Z M 35.562969,24.697284 V 10.571987 H 23.984856 12.406743 v 14.125297 14.125298 h 11.578113 11.578113 z"
     style="opacity:1;fill:#ee6352;fill-opacity:0;stroke-width:0.463125" />
  <path
     transform="matrix(20,0,0,20,0,-960)"
     inkscape:connector-curvature="0"
     id="path853"
     d="M 24.045618,42.73882 C 15.248155,42.684954 11.454943,42.614065 11.192489,42.498616 10.562887,42.221666 9.2081135,40.88076 8.8863495,40.216084 8.3900867,39.190943 8.3082889,36.80009 8.3037379,23.187021 L 8.2995047,10.524824 H 7.1488672 c -1.5978094,0 -1.6067463,-0.01257 -1.6067463,-2.2598104 V 6.4613114 h 5.5147681 5.514767 V 5.3003077 4.139304 h 7.401399 7.401399 v 1.1610037 1.1610037 h 5.514767 5.514768 v 1.8037022 c 0,2.2475154 -0.0087,2.2598104 -1.608078,2.2598104 h -1.15197 l 0.004,14.602197 0.004,14.602196 -0.837193,0.943026 c -0.460455,0.518662 -0.989879,1.132679 -1.176494,1.364481 -0.186617,0.2318 -0.513149,0.501794 -0.725627,0.599986 -0.300393,0.138818 -3.162528,0.161532 -12.867116,0.10211 z M 35.583092,24.674557 V 10.524824 H 23.973055 12.363018 V 24.674557 38.82429 h 11.610037 11.610037 z"
     style="opacity:1;fill:#ee6352;fill-opacity:0;stroke-width:0.145125" />
  <path
     transform="matrix(20,0,0,20,0,-960)"
     inkscape:connector-curvature="0"
     id="path855"
     d="M 24.045618,42.73882 C 15.248155,42.684954 11.454943,42.614065 11.192489,42.498616 10.562887,42.221666 9.2081135,40.88076 8.8863495,40.216084 8.3900867,39.190943 8.3082889,36.80009 8.3037379,23.187021 L 8.2995047,10.524824 H 7.1488672 c -1.5978094,0 -1.6067463,-0.01257 -1.6067463,-2.2598104 V 6.4613114 h 5.5147681 5.514767 V 5.3003077 4.139304 h 7.401399 7.401399 v 1.1610037 1.1610037 h 5.514767 5.514768 v 1.8037022 c 0,2.2475154 -0.0087,2.2598104 -1.608078,2.2598104 h -1.15197 l 0.004,14.602197 0.004,14.602196 -0.837193,0.943026 c -0.460455,0.518662 -0.989879,1.132679 -1.176494,1.364481 -0.186617,0.2318 -0.513149,0.501794 -0.725627,0.599986 -0.300393,0.138818 -3.162528,0.161532 -12.867116,0.10211 z M 35.583092,24.674557 V 10.524824 H 23.973055 12.363018 V 24.674557 38.82429 h 11.610037 11.610037 z"
     style="opacity:1;fill:#ee6352;fill-opacity:0;stroke-width:0.145125" />
  <path
     transform="matrix(20,0,0,20,0,-960)"
     inkscape:connector-curvature="0"
     id="path857"
     d="M 24.045618,42.73882 C 15.248155,42.684954 11.454943,42.614065 11.192489,42.498616 10.562887,42.221666 9.2081135,40.88076 8.8863495,40.216084 8.3900867,39.190943 8.3082889,36.80009 8.3037379,23.187021 L 8.2995047,10.524824 H 7.1488672 c -1.5978094,0 -1.6067463,-0.01257 -1.6067463,-2.2598104 V 6.4613114 h 5.5147681 5.514767 V 5.3003077 4.139304 h 7.401399 7.401399 v 1.1610037 1.1610037 h 5.514767 5.514768 v 1.8037022 c 0,2.2475154 -0.0087,2.2598104 -1.608078,2.2598104 h -1.15197 l 0.004,14.602197 0.004,14.602196 -0.837193,0.943026 c -0.460455,0.518662 -0.989879,1.132679 -1.176494,1.364481 -0.186617,0.2318 -0.513149,0.501794 -0.725627,0.599986 -0.300393,0.138818 -3.162528,0.161532 -12.867116,0.10211 z M 35.583092,24.674557 V 10.524824 H 23.973055 12.363018 V 24.674557 38.82429 h 11.610037 11.610037 z"
     style="opacity:1;fill:#ee6352;fill-opacity:0;stroke-width:0.145125" />
</svg>
